<?xml version="1.0" encoding="UTF-8" standalone="no"?>
<!-- Uploaded to: SVG Repo, www.svgrepo.com, Transformed by: SVG Repo Mixer Tools -->

<svg
   width="800px"
   height="800px"
   viewBox="0 0 24 24"
   fill="none"
   transform="matrix(1, 0, 0, 1, 0, 0)"
   version="1.1"
   id="svg11"
   sodipodi:docname="folder-opened.svg"
   inkscape:version="1.2.2 (732a01da63, 2022-12-09)"
   xmlns:inkscape="http://www.inkscape.org/namespaces/inkscape"
   xmlns:sodipodi="http://sodipodi.sourceforge.net/DTD/sodipodi-0.dtd"
   xmlns="http://www.w3.org/2000/svg"
   xmlns:svg="http://www.w3.org/2000/svg">
  <defs
     id="defs15" />
  <sodipodi:namedview
     id="namedview13"
     pagecolor="#ffffff"
     bordercolor="#000000"
     borderopacity="0.25"
     inkscape:showpageshadow="2"
     inkscape:pageopacity="0.0"
     inkscape:pagecheckerboard="0"
     inkscape:deskcolor="#d1d1d1"
     showgrid="false"
     inkscape:zoom="0.62625"
     inkscape:cx="319.36128"
     inkscape:cy="463.07385"
     inkscape:window-width="2560"
     inkscape:window-height="1377"
     inkscape:window-x="1912"
     inkscape:window-y="-8"
     inkscape:window-maximized="1"
     inkscape:current-layer="SVGRepo_iconCarrier" />
  <g
     id="SVGRepo_bgCarrier"
     stroke-width="0" />
  <g
     id="SVGRepo_tracerCarrier"
     stroke-linecap="round"
     stroke-linejoin="round" />
  <g
     id="SVGRepo_iconCarrier">
    <path
       d="M4 9V6.47214C4 6.16165 4.07229 5.85542 4.21115 5.57771L5 4H10L11 6H21C21.5523 6 22 6.44772 22 7V9V18C22 19.1046 21.1046 20 20 20H18"
       stroke="#3F298E"
       stroke-linecap="round"
       stroke-linejoin="round"
       id="path6" />
    <path
       d="M17.2362 9H2.30925C1.64988 9 1.17099 9.62698 1.34449 10.2631L3.59806 18.5262C3.83537 19.3964 4.62569 20 5.52759 20H19.6908C20.3501 20 20.829 19.373 20.6555 18.7369L18.201 9.73688C18.0823 9.30182 17.6872 9 17.2362 9Z"
       stroke="#3F298E"
       id="path8" />
  </g>
</svg>
