<?xml version="1.0" encoding="UTF-8" standalone="no"?>
<!-- Uploaded to: SVG Repo, www.svgrepo.com, Transformed by: SVG Repo Mixer Tools -->

<svg
   width="800px"
   height="800px"
   viewBox="0 0 24 24"
   fill="none"
   version="1.1"
   id="svg11"
   sodipodi:docname="folder-closed.svg"
   inkscape:version="1.2.2 (732a01da63, 2022-12-09)"
   xmlns:inkscape="http://www.inkscape.org/namespaces/inkscape"
   xmlns:sodipodi="http://sodipodi.sourceforge.net/DTD/sodipodi-0.dtd"
   xmlns="http://www.w3.org/2000/svg"
   xmlns:svg="http://www.w3.org/2000/svg">
  <defs
     id="defs15" />
  <sodipodi:namedview
     id="namedview13"
     pagecolor="#ffffff"
     bordercolor="#000000"
     borderopacity="0.25"
     inkscape:showpageshadow="2"
     inkscape:pageopacity="0.0"
     inkscape:pagecheckerboard="0"
     inkscape:deskcolor="#d1d1d1"
     showgrid="false"
     inkscape:zoom="1.2525"
     inkscape:cx="346.50699"
     inkscape:cy="400"
     inkscape:window-width="2560"
     inkscape:window-height="1377"
     inkscape:window-x="1912"
     inkscape:window-y="-8"
     inkscape:window-maximized="1"
     inkscape:current-layer="SVGRepo_iconCarrier" />
  <g
     id="SVGRepo_bgCarrier"
     stroke-width="0" />
  <g
     id="SVGRepo_tracerCarrier"
     stroke-linecap="round"
     stroke-linejoin="round" />
  <g
     id="SVGRepo_iconCarrier">
    <path
       d="M3 6.47214C3 6.16165 3.07229 5.85542 3.21115 5.57771L4 4H9L10 6H20C20.5523 6 21 6.44772 21 7V9V19C21 19.5523 20.5523 20 20 20H4C3.44772 20 3 19.5523 3 19V9V6.47214Z"
       stroke="#000000"
       stroke-linecap="round"
       stroke-linejoin="round"
       id="path6" />
    <path
       d="M4 20H20C20.5523 20 21 19.5523 21 19V11C21 9.89543 20.1046 9 19 9H5C3.89543 9 3 9.89543 3 11V19C3 19.5523 3.44772 20 4 20Z"
       stroke="#000000"
       stroke-linecap="round"
       stroke-linejoin="round"
       id="path8" />
  </g>
</svg>
